#!OML:ASF F:\VICON\USERDATA\INSTALL\rory3\rory3.ASF
:FULLY-SPECIFIED
:DEGREES
46
root -0.31319980797237723 17.32978951793006 24.33435239581172 5.317668706316739 -1.3272081113380483 -5.252268868071734
lfemur -34.78631017229613 -3.0809943352254017 -14.701660761192755
ltibia 39.218319345304906
lfoot 0.7963994697729275 -3.0545720302500534
ltoes -11.18606850388997
rfemur 8.006102146505864 2.476531426488388 34.51629547789476
rtibia 56.603229633373
rfoot -1.472288399291358 -3.3956324673909424
rtoes -3.911576386791132
lowerback 13.800810032981364 2.736970058022182 5.57985291287286
upperback -1.3846955213820027 4.713083663816725 1.8238173286648307
thorax -9.26741414281605 2.003427714632587 -2.727591460187215
lowerneck -21.6116605679959 -4.141821967473274 -1.5569067719301184
upperneck 13.004225465939111 -5.86504266731928 3.08357194223343
head 7.613126510888926 -2.481236091543253 0.5793067421322119
lclavicle -1.6116738372751564e-15 1.8686077749976936e-15
lhumerus -63.82395375161297 -9.881160494323998 98.97281548512007
lradius 100.84492329590468
lwrist 31.974781010498912
lhand -24.656915933126 1.5975535614391796
lfingers 7.12502
lthumb 1.842906926119137 31.56584514895126
rclavicle -1.6116738372751564e-15 1.8686077749976936e-15
rhumerus -38.79167509429039 14.737140495741613 -100.47304965780508
rradius 116.07384587429559
rwrist -12.96707649284385
rhand -17.708461983687354 40.59113949879299
rfingers 7.12502
rthumb 8.55129348089655 10.806450462505369
47
root -0.24604031257715434 17.31648877084125 26.36281169350371 4.989106371985562 -1.296709616675086 -4.769799158323901
lfemur -33.47415328765133 -2.7614221819487916 -15.534695967457566
ltibia 41.04986117559179
lfoot 1.9933737888338718 -3.928513772738035
ltoes -10.207274248575503
rfemur 8.678714202106978 1.9905722467125067 33.82560842539297
rtibia 63.55575153121675
rfoot 3.7886169003013164 -1.5937796627157086
rtoes -2.920021070881449
lowerback 13.691326569826792 2.8489205812194203 5.315139458650143
upperback -1.3806345720523163 4.818154174364141 1.6264158534418969
thorax -9.228015183704464 2.0554201623401416 -2.543478589662063
lowerneck -21.299626728728274 -4.214280228421371 -1.568927968101088
upperneck 13.160984839173192 -5.99221110303683 3.2366660425601044
head 7.635414063050646 -2.5286361502530803 0.6263994773731744
lclavicle -7.268244201555573e-16 2.5104181326049696e-15
lhumerus -64.41866299649377 -8.512843344320506 98.11501779405702
lradius 98.92423663168863
lwrist 31.258140730281323
lhand -24.236557023935262 1.9280094044825145
lfingers 7.12502
lthumb 2.2488804666752493 31.894939737227144
rclavicle -7.268244201555573e-16 2.5104181326049696e-15
rhumerus -39.12092284912487 14.14653888230725 -100.10432431807845
rradius 115.95672100676079
rwrist -12.6305928802743
rhand -17.6233460224135 40.58372817624971
rfingers 7.12502
rthumb 8.633428434341292 10.799350364271925
48
root -0.19329866956904299 17.301743414600082 26.775061777112676 4.440916573862702 -1.5520305366858014 -4.416943023480474
lfemur -33.56734246460383 -2.6262439429609143 -17.006461347285605
ltibia 41.709649698226514
lfoot 1.5553862164668806 -5.001510502922566
ltoes -9.614875759308271
rfemur 6.426757542062564 1.0455150572908365 32.55557939645468
rtibia 69.74604566675208
rfoot 9.086988989472149 -0.6592526093707907
rtoes -1.1699047122771806
lowerback 13.611098948970415 2.8227253361823674 4.666227959898446
upperback -1.4103132208368532 4.689552329028991 1.3033164715377128
thorax -9.278398405491174 2.0126767590798647 -2.537847707718816
lowerneck -21.089752578564354 -4.311067208581401 -1.6315781613350537
upperneck 13.223861491917978 -6.157645140574502 3.2958161890385758
head 7.631344056940455 -2.5940057844556246 0.6464702399736078
lclavicle -1.8874226379454517e-15 1.66859813617862e-15
lhumerus -65.82711841491668 -7.869722067750258 97.18439659788694
lradius 96.8774556213463
lwrist 30.552295356390218
lhand -23.981753717728264 2.0985516662053185
lfingers 7.12502
lthumb 2.4949693111498843 32.06483928978541
rclavicle -1.8874226379454517e-15 1.66859813617862e-15
rhumerus -40.46962088141538 13.151801320056464 -100.06736715129007
rradius 115.37781218210213
rwrist -12.49964233969948
rhand -17.608262055082815 40.42690053753638
rfingers 7.12502
rthumb 8.647997902897604 10.646771898231114
49
root -0.13591736735176618 17.347294781440542 27.658142060164806 3.827850714627368 -1.7021884537855607 -3.862391822015275
lfemur -32.240374543765455 -2.2954380015980846 -18.566873331070987
ltibia 43.45971203837466
lfoot 0.8304324703063151 -5.761003644830816
ltoes -8.55861690206132
rfemur 3.0269563204939054 -0.02356275861543844 31.199916191557772
rtibia 78.28060325571522
rfoot 15.457445407902126 0.04478762167761818
rtoes 3.2717442902862395
lowerback 13.722061240377755 2.7899668045318378 3.9379217325078733
upperback -1.3676347636944637 4.541018351958286 0.9932263285910096
thorax -9.344450353082241 1.9629632323082147 -2.3171922780112344
lowerneck -20.841221674156397 -4.314567141660952 -1.681089981373
upperneck 13.265362000028189 -6.202555771630817 3.3764577021383095
head 7.62569872844888 -2.5978130879858705 0.6797532169935481
lclavicle -2.290094012597199e-15 1.3765273762216436e-15
lhumerus -66.33581215023729 -7.301445862171496 96.35956785650241
lradius 95.43283746743882
lwrist 30.10819739311287
lhand -23.78069201421263 2.310632636548406
lfingers 7.12502
lthumb 2.6891622460003015 32.27581460722448
rclavicle -2.290094012597199e-15 1.3765273762216436e-15
rhumerus -41.97162459970178 12.091130445459548 -99.81879121224148
rradius 114.67590529414353
rwrist -12.169156627510626
rhand -17.433061078134966 40.27422465261812
rfingers 7.12502
rthumb 8.817078182100163 10.499746914919037
50
root -0.08005260486808394 17.41930762591021 28.536381450844722 3.1940720612913034 -1.9434452595733762 -3.2583748412683518
lfemur -30.340123315119214 -2.06695233158265 -20.20570875616956
ltibia 44.76569472313991
lfoot -0.7630925142386304 -6.071521145241023
ltoes -7.45603301982369
rfemur -1.9487092153958336 -1.2090214640897439 29.753112727751738
rtibia 87.44270601598201
rfoot 21.02799063927825 -0.15414593702219204
rtoes 8.48896947502571
lowerback 14.004166709442025 2.713288097113891 3.0950467399109627
upperback -1.2714632516748112 4.319502345993015 0.688814936642784
thorax -9.444450461566127 1.8836513041233331 -2.011663390446414
lowerneck -20.63968954435191 -4.18942830994138 -1.7354256449921417
upperneck 13.249391466089923 -6.066593398884751 3.4162664748563225
head 7.608551310650664 -2.5173013600875356 0.7108510596968936
lclavicle -2.761615517987354e-15 1.034517351038524e-15
lhumerus -66.29025327036314 -7.248155246100165 95.82224279192141
lradius 94.71161741538816
lwrist 30.095219972224605
lhand -23.81344614280071 2.3319663119964646
lfingers 7.12502
lthumb 2.6575426211931013 32.29702509783756
rclavicle -2.761615517987354e-15 1.034517351038524e-15
rhumerus -43.584301139558356 11.071130669413881 -99.6103857530971
rradius 113.8557935449275
rwrist -11.795408680764963
rhand -17.215141426760415 40.07467722148112
rfingers 7.12502
rthumb 9.02739203220264 10.307259806832983
51
root -0.021132506348282426 17.52062085808904 30.15740573967244 2.6932345858300133 -2.0409807628144887 -2.6039441452602916
lfemur -27.24576089744278 -1.8302483293687926 -21.467912456000644
ltibia 46.326693682402556
lfoot -2.357859117267532 -5.773447341284832
ltoes -6.2106194172642235
rfemur -7.102538175582568 -2.2044596634867872 28.68180424797859
rtibia 96.69744046439152
rfoot 24.33230605633868 -0.9727602979097583
rtoes 13.314379798492173
lowerback 14.439249386639512 2.6290873629520295 2.40324244508519
upperback -1.0873573080201278 4.106101020727445 0.4962217007133649
thorax -9.521017214033964 1.8053354384677087 -1.5417534138199191
lowerneck -20.42444885625893 -3.889111194979583 -1.771250003163929
upperneck 13.235252167406413 -5.667951777014384 3.4345299861682315
head 7.594920928216764 -2.3207622079487114 0.7486610975440748
lclavicle -2.2721853330308793e-15 1.3895171567962689e-15
lhumerus -64.97824769377915 -7.412714003781799 95.66794372133701
lradius 94.94535169245746
lwrist 30.5113129302045
lhand -24.056282817633033 2.3095472328926587
lfingers 7.12502
lthumb 2.4230257936176987 32.274199461917206
rclavicle -2.2721853330308793e-15 1.3895171567962689e-15
rhumerus -44.73747983403047 10.339741983066789 -99.27664187040898
rradius 113.11736978703483
rwrist -11.27430359629655
rhand -16.87682897582399 39.92982631549379
rfingers 7.12502
rthumb 9.353881062384932 10.169266433283777
52
root 0.021307407012748886 17.588926517403795 31.09062656808439 2.2564805858228807 -2.1114861354255687 -2.1008823088953466
lfemur -24.476314350083328 -1.9198802289931907 -22.755377128966067
ltibia 46.13195181140396
lfoot -4.709181698810474 -5.373275829135044
ltoes -5.660049898964534
rfemur -13.352493780474244 -3.258385857398054 27.64461732974784
rtibia 103.116695789152
rfoot 23.9537637517373 -2.6297931757630835
rtoes 15.450529483077776
lowerback 14.819745812293856 2.4201039698267763 1.636251662739785
upperback -0.9073014994773514 3.711086629992451 0.3325535074124071
thorax -9.59976366421926 1.6497946256389038 -1.120178078839864
lowerneck -20.27070317187027 -3.562464159835788 -1.8484566107515439
upperneck 13.148528336701231 -5.211936617027666 3.3901432415086976
head 7.561321897365069 -2.10464283765004 0.7758477957033478
lclavicle -2.6306697455392155e-15 1.1294966517477372e-15
lhumerus -63.43492709424133 -8.156549121588203 95.68074346298823
lradius 95.32532511486929
lwrist 30.974280081973802
lhand -24.50367729799613 2.0265846259583458
lfingers 7.12502
lthumb 1.9909431566614635 31.991617651725722
rclavicle -2.6306697455392155e-15 1.1294966517477372e-15
rhumerus -46.03334389462971 9.605667082417588 -99.12537427724395
rradius 112.30757339815257
rwrist -10.91420021492116
rhand -16.622896858852613 39.77317871539677
rfingers 7.12502
rthumb 9.598939102956496 10.019495056216073
